# xmcd
#
# Track frame offsets: 
#        150
#        11569
#        25625
#        37755
#        52296
#        68645
#        81210
#        100951
#        114361
#        125842
#        135146
#        149866
#        174197
#        190072
#
# Disc length: 2699 seconds
#
# Revision: 0
# Processed by: cddbd v1.5.2PL0 Copyright (c) Steve Scherf et al.
# Submitted via: ExactAudioCopyFreeDBPlugin 1.0
#
DISCID=b70a890e
DTITLE=George Smith and The Chicago Blues Band - Blues With A Feeling
DYEAR=2012
DGENRE=Blues
TTITLE0=Mellow Down Easy
TTITLE1=Can't Hold Out Much Longer
TTITLE2=My Babe
TTITLE3=Juke
TTITLE4=West Helena Woman
TTITLE5=Tell Me Mama
TTITLE6=Last Night
TTITLE7=You Better Watch Yourself
TTITLE8=Key To The Highway
TTITLE9=Everything Gonna Be Alright
TTITLE10=Too Late
TTITLE11=Goin' Down Slow
TTITLE12=Just A Feelin'
TTITLE13=Love With A Feelin'
EXTD=
EXTT0=
EXTT1=
EXTT2=
EXTT3=
EXTT4=
EXTT5=
EXTT6=
EXTT7=
EXTT8=
EXTT9=
EXTT10=
EXTT11=
EXTT12=
EXTT13=
PLAYORDER=
